<svg width="24" height="24" viewBox="0 0 24 24" fill="none" xmlns="http://www.w3.org/2000/svg">
<path fill-rule="evenodd" clip-rule="evenodd" d="M11.5 24C17.8513 24 23 18.8513 23 12.5C23 6.14873 17.8513 1 11.5 1C5.14873 1 0 6.14873 0 12.5C0 18.8513 5.14873 24 11.5 24ZM15.6366 9.06066C16.2224 9.64645 16.2224 10.5962 15.6366 11.182L11.394 15.4246C10.8379 15.9807 9.9538 16.0089 9.36446 15.5092C9.30059 15.463 9.23954 15.4111 9.182 15.3535L7.06068 13.2322C6.47489 12.6464 6.47489 11.6967 7.06068 11.1109C7.64646 10.5251 8.59621 10.5251 9.182 11.1109L10.3235 12.2524L13.5153 9.06066C14.1011 8.47488 15.0508 8.47488 15.6366 9.06066Z" fill="#374957"/>
<path d="M11 20.5603H22.2802C23.23 20.5603 24 21.3303 24 22.2801C24 23.2299 23.23 23.9999 22.2802 23.9999H11V20.5603Z" fill="#374957"/>
</svg>
