<svg width="24" height="24" viewBox="0 0 24 24" fill="none" xmlns="http://www.w3.org/2000/svg">
<g clip-path="url(#clip0_85_975)">
<path d="M12.4525 14.0187C8.19075 14.4039 4.94391 18.005 5.00048 22.2837V22.5007C5.00048 23.3291 5.67206 24.0007 6.50048 24.0007C7.32891 24.0007 8.00048 23.3291 8.00048 22.5007V22.2237C7.95539 19.5966 9.89414 17.3563 12.5005 17.0237C15.2517 16.7509 17.7032 18.76 17.976 21.5113C17.9922 21.6739 18.0003 21.8373 18.0005 22.0007V22.5007C18.0005 23.3291 18.672 24.0007 19.5005 24.0007C20.3289 24.0007 21.0005 23.3291 21.0005 22.5007V22.0007C20.9956 17.5774 17.4059 13.9956 12.9826 14.0005C12.8058 14.0007 12.629 14.0068 12.4525 14.0187Z" fill="#374957"/>
<path d="M13.0005 12C16.3142 12 19.0005 9.31369 19.0005 6C19.0005 2.68631 16.3142 0 13.0005 0C9.68684 0 7.00053 2.68631 7.00053 6C7.00381 9.31233 9.6882 11.9967 13.0005 12ZM13.0005 3C14.6574 3 16.0005 4.34316 16.0005 6C16.0005 7.65684 14.6574 9 13.0005 9C11.3437 9 10.0005 7.65684 10.0005 6C10.0005 4.34316 11.3437 3 13.0005 3Z" fill="#374957"/>
</g>
<defs>
<clipPath id="clip0_85_975">
<rect width="24" height="24" fill="black"/>
</clipPath>
</defs>
</svg>
