<svg width="24" height="24" viewBox="0 0 24 24" fill="none" xmlns="http://www.w3.org/2000/svg">
<g clip-path="url(#clip0_366_841)">
<path d="M8.00015 7.00024H22.5002C22.898 7.00024 23.2795 6.84221 23.5608 6.5609C23.8421 6.2796 24.0002 5.89807 24.0002 5.50024C24.0002 5.10242 23.8421 4.72089 23.5608 4.43958C23.2795 4.15828 22.898 4.00024 22.5002 4.00024H8.00015C7.60233 4.00024 7.2208 4.15828 6.93949 4.43958C6.65819 4.72089 6.50015 5.10242 6.50015 5.50024C6.50015 5.89807 6.65819 6.2796 6.93949 6.5609C7.2208 6.84221 7.60233 7.00024 8.00015 7.00024V7.00024Z" fill="#2E2E2E"/>
<path d="M22.5002 10.9998H8.00015C7.60233 10.9998 7.2208 11.1578 6.93949 11.4391C6.65819 11.7204 6.50015 12.1019 6.50015 12.4998C6.50015 12.8976 6.65819 13.2791 6.93949 13.5604C7.2208 13.8417 7.60233 13.9998 8.00015 13.9998H22.5002C22.898 13.9998 23.2795 13.8417 23.5608 13.5604C23.8421 13.2791 24.0002 12.8976 24.0002 12.4998C24.0002 12.1019 23.8421 11.7204 23.5608 11.4391C23.2795 11.1578 22.898 10.9998 22.5002 10.9998Z" fill="#2E2E2E"/>
<path d="M22.5002 18H8.00015C7.60233 18 7.2208 18.158 6.93949 18.4393C6.65819 18.7206 6.50015 19.1022 6.50015 19.5C6.50015 19.8978 6.65819 20.2794 6.93949 20.5607C7.2208 20.842 7.60233 21 8.00015 21H22.5002C22.898 21 23.2795 20.842 23.5608 20.5607C23.8421 20.2794 24.0002 19.8978 24.0002 19.5C24.0002 19.1022 23.8421 18.7206 23.5608 18.4393C23.2795 18.158 22.898 18 22.5002 18Z" fill="#2E2E2E"/>
<path d="M2.5 8C3.88071 8 5 6.88071 5 5.5C5 4.11929 3.88071 3 2.5 3C1.11929 3 0 4.11929 0 5.5C0 6.88071 1.11929 8 2.5 8Z" fill="#2E2E2E"/>
<path d="M2.5 14.4997C3.88071 14.4997 5 13.3805 5 11.9997C5 10.619 3.88071 9.49976 2.5 9.49976C1.11929 9.49976 0 10.619 0 11.9997C0 13.3805 1.11929 14.4997 2.5 14.4997Z" fill="#2E2E2E"/>
<path d="M2.5 21.5C3.88071 21.5 5 20.3807 5 19C5 17.6193 3.88071 16.5 2.5 16.5C1.11929 16.5 0 17.6193 0 19C0 20.3807 1.11929 21.5 2.5 21.5Z" fill="#2E2E2E"/>
</g>
<defs>
<clipPath id="clip0_366_841">
<rect width="24" height="24" fill="white"/>
</clipPath>
</defs>
</svg>
