<svg width="24" height="24" viewBox="0 0 24 24" fill="none" xmlns="http://www.w3.org/2000/svg">
<path d="M13.7674 12L21.6338 4.13447C22.1221 3.64617 22.1221 2.85449 21.6338 2.36623C21.1455 1.87792 20.3538 1.87792 19.8655 2.36623L12 10.2326L4.13447 2.36623C3.64617 1.87792 2.85449 1.87792 2.36623 2.36623C1.87796 2.85453 1.87792 3.64621 2.36623 4.13447L10.2326 12L2.36623 19.8655C1.87792 20.3538 1.87792 21.1455 2.36623 21.6338C2.85453 22.122 3.64621 22.1221 4.13447 21.6338L12 13.7674L19.8655 21.6338C20.3538 22.1221 21.1455 22.1221 21.6337 21.6338C22.122 21.1455 22.122 20.3538 21.6337 19.8655L13.7674 12Z" fill="#374957"/>
</svg>
