<svg width="24" height="24" viewBox="0 0 24 24" fill="none" xmlns="http://www.w3.org/2000/svg">
<g clip-path="url(#clip0_85_977)">
<path d="M-7.62939e-06 19C0.00158023 20.3256 0.528874 21.5964 1.46621 22.5338C2.40355 23.4711 3.6744 23.9984 4.99999 24H19C20.3256 23.9984 21.5964 23.4711 22.5338 22.5338C23.4711 21.5964 23.9984 20.3256 24 19V10H-7.62939e-06V19ZM17 14.5C17.2967 14.5 17.5867 14.588 17.8333 14.7528C18.08 14.9176 18.2723 15.1519 18.3858 15.426C18.4993 15.7001 18.529 16.0017 18.4712 16.2926C18.4133 16.5836 18.2704 16.8509 18.0607 17.0607C17.8509 17.2704 17.5836 17.4133 17.2926 17.4712C17.0017 17.5291 16.7001 17.4994 16.426 17.3858C16.1519 17.2723 15.9176 17.08 15.7528 16.8334C15.588 16.5867 15.5 16.2967 15.5 16C15.5 15.6022 15.658 15.2206 15.9393 14.9393C16.2206 14.658 16.6022 14.5 17 14.5ZM12 14.5C12.2967 14.5 12.5867 14.588 12.8333 14.7528C13.08 14.9176 13.2723 15.1519 13.3858 15.426C13.4993 15.7001 13.529 16.0017 13.4712 16.2926C13.4133 16.5836 13.2704 16.8509 13.0607 17.0607C12.8509 17.2704 12.5836 17.4133 12.2926 17.4712C12.0017 17.5291 11.7001 17.4994 11.426 17.3858C11.1519 17.2723 10.9176 17.08 10.7528 16.8334C10.588 16.5867 10.5 16.2967 10.5 16C10.5 15.6022 10.658 15.2206 10.9393 14.9393C11.2206 14.658 11.6022 14.5 12 14.5ZM6.99999 14.5C7.29666 14.5 7.58667 14.588 7.83335 14.7528C8.08002 14.9176 8.27228 15.1519 8.38581 15.426C8.49934 15.7001 8.52905 16.0017 8.47117 16.2926C8.41329 16.5836 8.27043 16.8509 8.06065 17.0607C7.85087 17.2704 7.5836 17.4133 7.29263 17.4712C7.00166 17.5291 6.70006 17.4994 6.42597 17.3858C6.15188 17.2723 5.91761 17.08 5.75279 16.8334C5.58797 16.5867 5.49999 16.2967 5.49999 16C5.49999 15.6022 5.65803 15.2206 5.93933 14.9393C6.22064 14.658 6.60217 14.5 6.99999 14.5Z" fill="#374957"/>
<path d="M19 2H18V1C18 0.734784 17.8946 0.48043 17.7071 0.292893C17.5196 0.105357 17.2652 0 17 0C16.7348 0 16.4804 0.105357 16.2929 0.292893C16.1054 0.48043 16 0.734784 16 1V2H8V1C8 0.734784 7.89464 0.48043 7.70711 0.292893C7.51957 0.105357 7.26522 0 7 0C6.73478 0 6.48043 0.105357 6.29289 0.292893C6.10536 0.48043 6 0.734784 6 1V2H5C3.67441 2.00159 2.40356 2.52888 1.46622 3.46622C0.528882 4.40356 0.00158786 5.67441 0 7L0 8H24V7C23.9984 5.67441 23.4711 4.40356 22.5338 3.46622C21.5964 2.52888 20.3256 2.00159 19 2Z" fill="#374957"/>
</g>
<defs>
<clipPath id="clip0_85_977">
<rect width="24" height="24" fill="white"/>
</clipPath>
</defs>
</svg>
