<svg width="24" height="24" viewBox="0 0 24 24" fill="none" xmlns="http://www.w3.org/2000/svg">
<g clip-path="url(#clip0_85_978)">
<path d="M12.0002 7.94594C12.8413 7.94594 13.5232 7.26405 13.5232 6.42292C13.5232 5.58179 12.8413 4.8999 12.0002 4.8999C11.1591 4.8999 10.4772 5.58179 10.4772 6.42292C10.4772 7.26405 11.1591 7.94594 12.0002 7.94594Z" fill="#374957"/>
<path d="M19.9999 0.000732422H3.99988C1.77617 0.0183105 -0.0134218 1.83298 -0.000109307 4.05673V16.2267C-0.0134218 18.4506 1.77603 20.2655 3.99988 20.2837H6.92286L10.6708 23.4837C11.4132 24.1622 12.5477 24.1721 13.3018 23.5067L17.1469 20.2827H19.9999C22.2237 20.2646 24.0132 18.4496 23.9998 16.2257V4.05673C24.0132 1.83298 22.2236 0.0183105 19.9999 0.000732422ZM11.9999 3.04273C16.6149 3.16475 16.6139 10.0197 11.9999 10.1427C7.38491 10.0197 7.38589 3.1677 11.9999 3.04273ZM16.2489 17.2087C15.7137 17.3453 15.1693 17.0221 15.0327 16.487C15.0321 16.4846 15.0315 16.4822 15.0309 16.4797C14.519 14.8055 12.7468 13.8632 11.0726 14.375C10.0648 14.6831 9.27598 15.4719 8.96787 16.4797C8.82814 17.0143 8.28148 17.3345 7.74687 17.1947C7.21227 17.055 6.89216 16.5083 7.03189 15.9737C7.80514 13.2297 10.6565 11.6321 13.4005 12.4053C15.1299 12.8927 16.4815 14.2443 16.9689 15.9737C17.1081 16.5132 16.7869 17.0641 16.2489 17.2087Z" fill="#374957"/>
</g>
<defs>
<clipPath id="clip0_85_978">
<rect width="24" height="24" fill="white"/>
</clipPath>
</defs>
</svg>
