<svg width="24" height="24" viewBox="0 0 24 24" fill="none" xmlns="http://www.w3.org/2000/svg">
<path fill-rule="evenodd" clip-rule="evenodd" d="M11.5 24C17.8513 24 23 18.8513 23 12.5C23 6.14873 17.8513 1 11.5 1C5.14873 1 0 6.14873 0 12.5C0 18.8513 5.14873 24 11.5 24ZM11.5001 20.55C15.946 20.55 19.5501 16.9459 19.5501 12.5C19.5501 8.05411 15.946 4.45001 11.5001 4.45001C7.0542 4.45001 3.45009 8.05411 3.45009 12.5C3.45009 16.9459 7.0542 20.55 11.5001 20.55Z" fill="#374957"/>
<path d="M11 20.5603H22.2802C23.23 20.5603 24 21.3303 24 22.2801V22.2801C24 23.2299 23.23 23.9999 22.2802 23.9999H11V20.5603Z" fill="#374957"/>
<path d="M7.06068 11.111C7.64646 10.5252 8.59621 10.5252 9.182 11.111L11.3033 13.2323C11.8891 13.8181 11.8891 14.7678 11.3033 15.3536V15.3536C10.7175 15.9394 9.76778 15.9394 9.182 15.3536L7.06068 13.2323C6.47489 12.6465 6.47489 11.6967 7.06068 11.111V11.111Z" fill="#374957"/>
<path d="M15.6366 9.06068C16.2224 9.64646 16.2224 10.5962 15.6366 11.182L11.394 15.4246C10.8082 16.0104 9.85843 16.0104 9.27264 15.4246V15.4246C8.68686 14.8389 8.68686 13.8891 9.27264 13.3033L13.5153 9.06068C14.1011 8.47489 15.0508 8.47489 15.6366 9.06068V9.06068Z" fill="#374957"/>
</svg>
