<svg width="162" height="33" viewBox="0 0 162 33" fill="none" xmlns="http://www.w3.org/2000/svg">
<mask id="path-1-outside-1_98_340" maskUnits="userSpaceOnUse" x="0" y="0" width="162" height="33" fill="black">
<rect fill="white" width="162" height="33"/>
<path d="M6.23185 30.7948C5.75509 30.7948 5.32851 30.619 4.95212 30.2674C4.57573 29.9159 4.38753 29.4513 4.38753 28.8737V10.3038C4.38753 8.49577 4.73883 6.9263 5.44143 5.5954C6.16912 4.26449 7.17284 3.23492 8.45257 2.50669C9.7323 1.75334 11.2128 1.37667 12.894 1.37667C13.446 1.37667 13.8977 1.5399 14.249 1.86635C14.6254 2.19279 14.8136 2.60713 14.8136 3.10936C14.8136 3.58648 14.6254 4.00082 14.249 4.35238C13.8977 4.67883 13.446 4.84205 12.894 4.84205C11.9656 4.84205 11.15 5.0555 10.4474 5.4824C9.74485 5.90929 9.19281 6.49941 8.79132 7.25276C8.41493 8.0061 8.22673 8.89756 8.22673 9.92713V28.8737C8.22673 29.4513 8.05108 29.9159 7.69979 30.2674C7.34849 30.619 6.85918 30.7948 6.23185 30.7948ZM2.76904 14.1835C2.24209 14.1835 1.81552 14.0329 1.48931 13.7315C1.1631 13.4302 1 13.0535 1 12.6015C1 12.0993 1.1631 11.6975 1.48931 11.3961C1.81552 11.0948 2.24209 10.9441 2.76904 10.9441H12.0659C12.5929 10.9441 13.0195 11.0948 13.3457 11.3961C13.6719 11.6975 13.835 12.0993 13.835 12.6015C13.835 13.0535 13.6719 13.4302 13.3457 13.7315C13.0195 14.0329 12.5929 14.1835 12.0659 14.1835H2.76904Z"/>
<path d="M22.3097 30.7948C21.7576 30.7948 21.2934 30.619 20.917 30.2674C20.5657 29.8907 20.3901 29.4262 20.3901 28.8737V12.1118C20.3901 11.5343 20.5657 11.0697 20.917 10.7181C21.2934 10.3666 21.7576 10.1908 22.3097 10.1908C22.8868 10.1908 23.351 10.3666 23.7023 10.7181C24.0536 11.0697 24.2293 11.5343 24.2293 12.1118V28.8737C24.2293 29.4262 24.0536 29.8907 23.7023 30.2674C23.351 30.619 22.8868 30.7948 22.3097 30.7948ZM22.3097 6.83842C21.6322 6.83842 21.0425 6.59986 20.5406 6.12274C20.0639 5.62051 19.8255 5.03039 19.8255 4.35238C19.8255 3.67437 20.0639 3.09681 20.5406 2.61969C21.0425 2.11746 21.6322 1.86635 22.3097 1.86635C22.9872 1.86635 23.5643 2.11746 24.0411 2.61969C24.543 3.09681 24.7939 3.67437 24.7939 4.35238C24.7939 5.03039 24.543 5.62051 24.0411 6.12274C23.5643 6.59986 22.9872 6.83842 22.3097 6.83842Z"/>
<path d="M38.8618 30.7948C37.6072 30.7948 36.478 30.4809 35.4743 29.8531C34.4706 29.2002 33.6802 28.3213 33.103 27.2164C32.5259 26.1115 32.2373 24.8685 32.2373 23.4873V5.52006C32.2373 4.96761 32.413 4.51561 32.7643 4.16404C33.1156 3.81248 33.5673 3.6367 34.1193 3.6367C34.6713 3.6367 35.123 3.81248 35.4743 4.16404C35.8256 4.51561 36.0013 4.96761 36.0013 5.52006V23.4873C36.0013 24.4918 36.2773 25.333 36.8293 26.011C37.3814 26.689 38.0589 27.028 38.8618 27.028H40.1416C40.5932 27.028 40.9696 27.2038 41.2708 27.5554C41.597 27.9069 41.7601 28.3589 41.7601 28.9114C41.7601 29.4638 41.5468 29.9159 41.1202 30.2674C40.7187 30.619 40.1918 30.7948 39.5393 30.7948H38.8618ZM30.5059 14.1835C29.979 14.1835 29.5524 14.0329 29.2262 13.7315C28.9 13.4302 28.7369 13.0535 28.7369 12.6015C28.7369 12.0993 28.9 11.6975 29.2262 11.3961C29.5524 11.0948 29.979 10.9441 30.5059 10.9441H39.2006C39.7275 10.9441 40.1541 11.0948 40.4803 11.3961C40.8065 11.6975 40.9696 12.0993 40.9696 12.6015C40.9696 13.0535 40.8065 13.4302 40.4803 13.7315C40.1541 14.0329 39.7275 14.1835 39.2006 14.1835H30.5059Z"/>
<path d="M70.7185 30.1921L62.8519 22.3196C62.4504 21.9179 62.2496 21.4784 62.2496 21.0013C62.2496 20.4991 62.4504 20.047 62.8519 19.6453C63.2533 19.2435 63.6925 19.0426 64.1692 19.0426C64.6711 19.0426 65.1228 19.2435 65.5242 19.6453L73.3908 27.5554C73.7672 27.9572 73.9554 28.3966 73.9554 28.8737C73.9805 29.3508 73.7923 29.7903 73.3908 30.1921C72.9894 30.5939 72.5377 30.7948 72.0358 30.7948C71.5591 30.7948 71.1199 30.5939 70.7185 30.1921ZM60.4429 31.1714C58.2348 31.1714 56.2148 30.8073 54.383 30.0791C52.5513 29.3257 50.9704 28.2836 49.6405 26.9527C48.3357 25.5967 47.3194 24.0021 46.5917 22.169C45.864 20.3107 45.5002 18.2767 45.5002 16.0669C45.5002 13.8571 45.864 11.8356 46.5917 10.0025C47.3194 8.16932 48.3357 6.5873 49.6405 5.25639C50.9704 3.90037 52.5513 2.85825 54.383 2.13001C56.2148 1.37667 58.2348 1 60.4429 1C62.6511 1 64.6585 1.37667 66.4652 2.13001C68.297 2.85825 69.8778 3.90037 71.2078 5.25639C72.5377 6.5873 73.5665 8.16932 74.2942 10.0025C75.0219 11.8356 75.3857 13.8571 75.3857 16.0669C75.3857 18.2767 75.0219 20.3107 74.2942 22.169C73.5665 24.0021 72.5377 25.5967 71.2078 26.9527C69.8778 28.2836 68.297 29.3257 66.4652 30.0791C64.6585 30.8073 62.6511 31.1714 60.4429 31.1714ZM60.4429 27.6307C62.074 27.6307 63.567 27.3419 64.922 26.7644C66.3021 26.1617 67.494 25.3456 68.4977 24.316C69.5015 23.2613 70.2668 22.0309 70.7937 20.6246C71.3458 19.2184 71.6218 17.6991 71.6218 16.0669C71.6218 14.4346 71.3458 12.9154 70.7937 11.5091C70.2668 10.1029 69.5015 8.885 68.4977 7.85543C67.494 6.80075 66.3021 5.98463 64.922 5.40706C63.567 4.8295 62.074 4.54072 60.4429 4.54072C58.8119 4.54072 57.3063 4.8295 55.9262 5.40706C54.5712 5.98463 53.3919 6.80075 52.3881 7.85543C51.4095 8.885 50.6442 10.1029 50.0922 11.5091C49.5401 12.9154 49.2641 14.4346 49.2641 16.0669C49.2641 17.6991 49.5401 19.2184 50.0922 20.6246C50.6442 22.0309 51.4095 23.2613 52.3881 24.316C53.3919 25.3456 54.5712 26.1617 55.9262 26.7644C57.3063 27.3419 58.8119 27.6307 60.4429 27.6307Z"/>
<path d="M89.7977 30.9831C88.0663 30.9831 86.5106 30.619 85.1305 29.8907C83.7755 29.1374 82.6965 28.0451 81.8935 26.6137C81.1156 25.1823 80.7267 23.4245 80.7267 21.3403V12.0742C80.7267 11.5217 80.9023 11.0697 81.2536 10.7181C81.63 10.3415 82.0942 10.1531 82.6463 10.1531C83.1983 10.1531 83.65 10.3415 84.0013 10.7181C84.3777 11.0697 84.5659 11.5217 84.5659 12.0742V21.3403C84.5659 22.7465 84.8294 23.9142 85.3563 24.8433C85.8832 25.7474 86.5984 26.4254 87.5017 26.8774C88.4051 27.3043 89.4213 27.5177 90.5505 27.5177C91.6295 27.5177 92.583 27.3043 93.4111 26.8774C94.2643 26.4505 94.9418 25.8729 95.4436 25.1447C95.9455 24.4164 96.1964 23.6003 96.1964 22.6963H98.5677C98.5677 24.2532 98.1787 25.6595 97.4009 26.915C96.6481 28.1706 95.6067 29.1625 94.2768 29.8907C92.972 30.619 91.479 30.9831 89.7977 30.9831ZM98.116 30.7948C97.564 30.7948 97.0997 30.619 96.7234 30.2674C96.372 29.8907 96.1964 29.4262 96.1964 28.8737V12.0742C96.1964 11.4966 96.372 11.032 96.7234 10.6805C97.0997 10.3289 97.564 10.1531 98.116 10.1531C98.6931 10.1531 99.1573 10.3289 99.5087 10.6805C99.86 11.032 100.036 11.4966 100.036 12.0742V28.8737C100.036 29.4262 99.86 29.8907 99.5087 30.2674C99.1573 30.619 98.6931 30.7948 98.116 30.7948Z"/>
<path d="M116.47 30.9454C114.388 30.9454 112.531 30.506 110.9 29.6271C109.294 28.7231 108.027 27.4926 107.098 25.9357C106.195 24.3537 105.743 22.5456 105.743 20.5116C105.743 18.4525 106.17 16.6444 107.023 15.0875C107.901 13.5055 109.106 12.275 110.636 11.3961C112.167 10.4921 113.924 10.0401 115.906 10.0401C117.863 10.0401 119.544 10.4796 120.949 11.3585C122.355 12.2123 123.421 13.4051 124.149 14.9369C124.902 16.4436 125.278 18.1888 125.278 20.1726C125.278 20.6497 125.115 21.0515 124.789 21.378C124.462 21.6793 124.048 21.83 123.547 21.83H108.378V18.8166H123.434L121.89 19.8713C121.865 18.6157 121.614 17.4982 121.138 16.5189C120.661 15.5144 119.983 14.7234 119.105 14.1459C118.227 13.5683 117.16 13.2795 115.906 13.2795C114.476 13.2795 113.246 13.5934 112.217 14.2212C111.213 14.849 110.448 15.7153 109.921 16.8202C109.394 17.9 109.131 19.1305 109.131 20.5116C109.131 21.8927 109.444 23.1232 110.072 24.203C110.699 25.2828 111.565 26.1366 112.669 26.7644C113.773 27.3922 115.04 27.706 116.47 27.706C117.248 27.706 118.039 27.5679 118.842 27.2917C119.67 26.9904 120.335 26.6514 120.837 26.2747C121.213 25.9985 121.614 25.8604 122.041 25.8604C122.493 25.8352 122.882 25.9608 123.208 26.237C123.634 26.6137 123.86 27.028 123.885 27.48C123.91 27.932 123.71 28.3213 123.283 28.6477C122.43 29.3257 121.364 29.8782 120.084 30.3051C118.829 30.732 117.625 30.9454 116.47 30.9454Z"/>
<path d="M137.665 30.9454C135.908 30.9454 134.277 30.6818 132.772 30.1544C131.291 29.602 130.137 28.9114 129.309 28.0827C128.933 27.6809 128.769 27.2289 128.82 26.7267C128.895 26.1994 129.146 25.7725 129.572 25.446C130.074 25.0442 130.564 24.881 131.04 24.9563C131.542 25.0066 131.969 25.22 132.32 25.5967C132.747 26.0738 133.424 26.5258 134.353 26.9527C135.306 27.3545 136.36 27.5554 137.514 27.5554C138.97 27.5554 140.074 27.3168 140.827 26.8397C141.604 26.3626 142.006 25.7474 142.031 24.994C142.056 24.2407 141.692 23.5878 140.939 23.0353C140.212 22.4829 138.869 22.0309 136.912 21.6793C134.378 21.1771 132.533 20.4237 131.379 19.4193C130.25 18.4148 129.685 17.1843 129.685 15.7279C129.685 14.4472 130.062 13.3925 130.815 12.5638C131.567 11.71 132.533 11.0823 133.713 10.6805C134.892 10.2536 136.122 10.0401 137.401 10.0401C139.057 10.0401 140.525 10.3038 141.805 10.8311C143.085 11.3585 144.101 12.0867 144.854 13.0158C145.205 13.4176 145.368 13.8445 145.343 14.2965C145.318 14.7234 145.105 15.0875 144.703 15.3889C144.302 15.6651 143.825 15.753 143.273 15.6525C142.721 15.5521 142.257 15.3261 141.88 14.9745C141.253 14.3719 140.576 13.9575 139.848 13.7315C139.12 13.5055 138.28 13.3925 137.326 13.3925C136.222 13.3925 135.281 13.5808 134.503 13.9575C133.75 14.3342 133.374 14.8866 133.374 15.6149C133.374 16.0669 133.487 16.4812 133.713 16.8579C133.964 17.2095 134.44 17.5359 135.143 17.8372C135.846 18.1135 136.874 18.3897 138.229 18.6659C140.111 19.0426 141.592 19.5197 142.671 20.0973C143.775 20.6748 144.565 21.3528 145.042 22.1313C145.519 22.8846 145.757 23.7635 145.757 24.768C145.757 25.9231 145.444 26.9653 144.816 27.8944C144.214 28.8235 143.311 29.5643 142.106 30.1167C140.927 30.6692 139.446 30.9454 137.665 30.9454Z"/>
<path d="M158.102 30.7948C156.847 30.7948 155.718 30.4809 154.714 29.8531C153.711 29.2002 152.92 28.3213 152.343 27.2164C151.766 26.1115 151.477 24.8685 151.477 23.4873V5.52006C151.477 4.96761 151.653 4.51561 152.004 4.16404C152.356 3.81248 152.807 3.6367 153.359 3.6367C153.911 3.6367 154.363 3.81248 154.714 4.16404C155.066 4.51561 155.241 4.96761 155.241 5.52006V23.4873C155.241 24.4918 155.517 25.333 156.069 26.011C156.621 26.689 157.299 27.028 158.102 27.028H159.382C159.833 27.028 160.21 27.2038 160.511 27.5554C160.837 27.9069 161 28.3589 161 28.9114C161 29.4638 160.787 29.9159 160.36 30.2674C159.959 30.619 159.432 30.7948 158.779 30.7948H158.102ZM149.746 14.1835C149.219 14.1835 148.792 14.0329 148.466 13.7315C148.14 13.4302 147.977 13.0535 147.977 12.6015C147.977 12.0993 148.14 11.6975 148.466 11.3961C148.792 11.0948 149.219 10.9441 149.746 10.9441H158.441C158.967 10.9441 159.394 11.0948 159.72 11.3961C160.046 11.6975 160.21 12.0993 160.21 12.6015C160.21 13.0535 160.046 13.4302 159.72 13.7315C159.394 14.0329 158.967 14.1835 158.441 14.1835H149.746Z"/>
</mask>
<path d="M6.23185 30.7948C5.75509 30.7948 5.32851 30.619 4.95212 30.2674C4.57573 29.9159 4.38753 29.4513 4.38753 28.8737V10.3038C4.38753 8.49577 4.73883 6.9263 5.44143 5.5954C6.16912 4.26449 7.17284 3.23492 8.45257 2.50669C9.7323 1.75334 11.2128 1.37667 12.894 1.37667C13.446 1.37667 13.8977 1.5399 14.249 1.86635C14.6254 2.19279 14.8136 2.60713 14.8136 3.10936C14.8136 3.58648 14.6254 4.00082 14.249 4.35238C13.8977 4.67883 13.446 4.84205 12.894 4.84205C11.9656 4.84205 11.15 5.0555 10.4474 5.4824C9.74485 5.90929 9.19281 6.49941 8.79132 7.25276C8.41493 8.0061 8.22673 8.89756 8.22673 9.92713V28.8737C8.22673 29.4513 8.05108 29.9159 7.69979 30.2674C7.34849 30.619 6.85918 30.7948 6.23185 30.7948ZM2.76904 14.1835C2.24209 14.1835 1.81552 14.0329 1.48931 13.7315C1.1631 13.4302 1 13.0535 1 12.6015C1 12.0993 1.1631 11.6975 1.48931 11.3961C1.81552 11.0948 2.24209 10.9441 2.76904 10.9441H12.0659C12.5929 10.9441 13.0195 11.0948 13.3457 11.3961C13.6719 11.6975 13.835 12.0993 13.835 12.6015C13.835 13.0535 13.6719 13.4302 13.3457 13.7315C13.0195 14.0329 12.5929 14.1835 12.0659 14.1835H2.76904Z" fill="#3C6FF2"/>
<path d="M22.3097 30.7948C21.7576 30.7948 21.2934 30.619 20.917 30.2674C20.5657 29.8907 20.3901 29.4262 20.3901 28.8737V12.1118C20.3901 11.5343 20.5657 11.0697 20.917 10.7181C21.2934 10.3666 21.7576 10.1908 22.3097 10.1908C22.8868 10.1908 23.351 10.3666 23.7023 10.7181C24.0536 11.0697 24.2293 11.5343 24.2293 12.1118V28.8737C24.2293 29.4262 24.0536 29.8907 23.7023 30.2674C23.351 30.619 22.8868 30.7948 22.3097 30.7948ZM22.3097 6.83842C21.6322 6.83842 21.0425 6.59986 20.5406 6.12274C20.0639 5.62051 19.8255 5.03039 19.8255 4.35238C19.8255 3.67437 20.0639 3.09681 20.5406 2.61969C21.0425 2.11746 21.6322 1.86635 22.3097 1.86635C22.9872 1.86635 23.5643 2.11746 24.0411 2.61969C24.543 3.09681 24.7939 3.67437 24.7939 4.35238C24.7939 5.03039 24.543 5.62051 24.0411 6.12274C23.5643 6.59986 22.9872 6.83842 22.3097 6.83842Z" fill="#3C6FF2"/>
<path d="M38.8618 30.7948C37.6072 30.7948 36.478 30.4809 35.4743 29.8531C34.4706 29.2002 33.6802 28.3213 33.103 27.2164C32.5259 26.1115 32.2373 24.8685 32.2373 23.4873V5.52006C32.2373 4.96761 32.413 4.51561 32.7643 4.16404C33.1156 3.81248 33.5673 3.6367 34.1193 3.6367C34.6713 3.6367 35.123 3.81248 35.4743 4.16404C35.8256 4.51561 36.0013 4.96761 36.0013 5.52006V23.4873C36.0013 24.4918 36.2773 25.333 36.8293 26.011C37.3814 26.689 38.0589 27.028 38.8618 27.028H40.1416C40.5932 27.028 40.9696 27.2038 41.2708 27.5554C41.597 27.9069 41.7601 28.3589 41.7601 28.9114C41.7601 29.4638 41.5468 29.9159 41.1202 30.2674C40.7187 30.619 40.1918 30.7948 39.5393 30.7948H38.8618ZM30.5059 14.1835C29.979 14.1835 29.5524 14.0329 29.2262 13.7315C28.9 13.4302 28.7369 13.0535 28.7369 12.6015C28.7369 12.0993 28.9 11.6975 29.2262 11.3961C29.5524 11.0948 29.979 10.9441 30.5059 10.9441H39.2006C39.7275 10.9441 40.1541 11.0948 40.4803 11.3961C40.8065 11.6975 40.9696 12.0993 40.9696 12.6015C40.9696 13.0535 40.8065 13.4302 40.4803 13.7315C40.1541 14.0329 39.7275 14.1835 39.2006 14.1835H30.5059Z" fill="#3C6FF2"/>
<path d="M70.7185 30.1921L62.8519 22.3196C62.4504 21.9179 62.2496 21.4784 62.2496 21.0013C62.2496 20.4991 62.4504 20.047 62.8519 19.6453C63.2533 19.2435 63.6925 19.0426 64.1692 19.0426C64.6711 19.0426 65.1228 19.2435 65.5242 19.6453L73.3908 27.5554C73.7672 27.9572 73.9554 28.3966 73.9554 28.8737C73.9805 29.3508 73.7923 29.7903 73.3908 30.1921C72.9894 30.5939 72.5377 30.7948 72.0358 30.7948C71.5591 30.7948 71.1199 30.5939 70.7185 30.1921ZM60.4429 31.1714C58.2348 31.1714 56.2148 30.8073 54.383 30.0791C52.5513 29.3257 50.9704 28.2836 49.6405 26.9527C48.3357 25.5967 47.3194 24.0021 46.5917 22.169C45.864 20.3107 45.5002 18.2767 45.5002 16.0669C45.5002 13.8571 45.864 11.8356 46.5917 10.0025C47.3194 8.16932 48.3357 6.5873 49.6405 5.25639C50.9704 3.90037 52.5513 2.85825 54.383 2.13001C56.2148 1.37667 58.2348 1 60.4429 1C62.6511 1 64.6585 1.37667 66.4652 2.13001C68.297 2.85825 69.8778 3.90037 71.2078 5.25639C72.5377 6.5873 73.5665 8.16932 74.2942 10.0025C75.0219 11.8356 75.3857 13.8571 75.3857 16.0669C75.3857 18.2767 75.0219 20.3107 74.2942 22.169C73.5665 24.0021 72.5377 25.5967 71.2078 26.9527C69.8778 28.2836 68.297 29.3257 66.4652 30.0791C64.6585 30.8073 62.6511 31.1714 60.4429 31.1714ZM60.4429 27.6307C62.074 27.6307 63.567 27.3419 64.922 26.7644C66.3021 26.1617 67.494 25.3456 68.4977 24.316C69.5015 23.2613 70.2668 22.0309 70.7937 20.6246C71.3458 19.2184 71.6218 17.6991 71.6218 16.0669C71.6218 14.4346 71.3458 12.9154 70.7937 11.5091C70.2668 10.1029 69.5015 8.885 68.4977 7.85543C67.494 6.80075 66.3021 5.98463 64.922 5.40706C63.567 4.8295 62.074 4.54072 60.4429 4.54072C58.8119 4.54072 57.3063 4.8295 55.9262 5.40706C54.5712 5.98463 53.3919 6.80075 52.3881 7.85543C51.4095 8.885 50.6442 10.1029 50.0922 11.5091C49.5401 12.9154 49.2641 14.4346 49.2641 16.0669C49.2641 17.6991 49.5401 19.2184 50.0922 20.6246C50.6442 22.0309 51.4095 23.2613 52.3881 24.316C53.3919 25.3456 54.5712 26.1617 55.9262 26.7644C57.3063 27.3419 58.8119 27.6307 60.4429 27.6307Z" fill="#3C6FF2"/>
<path d="M89.7977 30.9831C88.0663 30.9831 86.5106 30.619 85.1305 29.8907C83.7755 29.1374 82.6965 28.0451 81.8935 26.6137C81.1156 25.1823 80.7267 23.4245 80.7267 21.3403V12.0742C80.7267 11.5217 80.9023 11.0697 81.2536 10.7181C81.63 10.3415 82.0942 10.1531 82.6463 10.1531C83.1983 10.1531 83.65 10.3415 84.0013 10.7181C84.3777 11.0697 84.5659 11.5217 84.5659 12.0742V21.3403C84.5659 22.7465 84.8294 23.9142 85.3563 24.8433C85.8832 25.7474 86.5984 26.4254 87.5017 26.8774C88.4051 27.3043 89.4213 27.5177 90.5505 27.5177C91.6295 27.5177 92.583 27.3043 93.4111 26.8774C94.2643 26.4505 94.9418 25.8729 95.4436 25.1447C95.9455 24.4164 96.1964 23.6003 96.1964 22.6963H98.5677C98.5677 24.2532 98.1787 25.6595 97.4009 26.915C96.6481 28.1706 95.6067 29.1625 94.2768 29.8907C92.972 30.619 91.479 30.9831 89.7977 30.9831ZM98.116 30.7948C97.564 30.7948 97.0997 30.619 96.7234 30.2674C96.372 29.8907 96.1964 29.4262 96.1964 28.8737V12.0742C96.1964 11.4966 96.372 11.032 96.7234 10.6805C97.0997 10.3289 97.564 10.1531 98.116 10.1531C98.6931 10.1531 99.1573 10.3289 99.5087 10.6805C99.86 11.032 100.036 11.4966 100.036 12.0742V28.8737C100.036 29.4262 99.86 29.8907 99.5087 30.2674C99.1573 30.619 98.6931 30.7948 98.116 30.7948Z" fill="#3C6FF2"/>
<path d="M116.47 30.9454C114.388 30.9454 112.531 30.506 110.9 29.6271C109.294 28.7231 108.027 27.4926 107.098 25.9357C106.195 24.3537 105.743 22.5456 105.743 20.5116C105.743 18.4525 106.17 16.6444 107.023 15.0875C107.901 13.5055 109.106 12.275 110.636 11.3961C112.167 10.4921 113.924 10.0401 115.906 10.0401C117.863 10.0401 119.544 10.4796 120.949 11.3585C122.355 12.2123 123.421 13.4051 124.149 14.9369C124.902 16.4436 125.278 18.1888 125.278 20.1726C125.278 20.6497 125.115 21.0515 124.789 21.378C124.462 21.6793 124.048 21.83 123.547 21.83H108.378V18.8166H123.434L121.89 19.8713C121.865 18.6157 121.614 17.4982 121.138 16.5189C120.661 15.5144 119.983 14.7234 119.105 14.1459C118.227 13.5683 117.16 13.2795 115.906 13.2795C114.476 13.2795 113.246 13.5934 112.217 14.2212C111.213 14.849 110.448 15.7153 109.921 16.8202C109.394 17.9 109.131 19.1305 109.131 20.5116C109.131 21.8927 109.444 23.1232 110.072 24.203C110.699 25.2828 111.565 26.1366 112.669 26.7644C113.773 27.3922 115.04 27.706 116.47 27.706C117.248 27.706 118.039 27.5679 118.842 27.2917C119.67 26.9904 120.335 26.6514 120.837 26.2747C121.213 25.9985 121.614 25.8604 122.041 25.8604C122.493 25.8352 122.882 25.9608 123.208 26.237C123.634 26.6137 123.86 27.028 123.885 27.48C123.91 27.932 123.71 28.3213 123.283 28.6477C122.43 29.3257 121.364 29.8782 120.084 30.3051C118.829 30.732 117.625 30.9454 116.47 30.9454Z" fill="#3C6FF2"/>
<path d="M137.665 30.9454C135.908 30.9454 134.277 30.6818 132.772 30.1544C131.291 29.602 130.137 28.9114 129.309 28.0827C128.933 27.6809 128.769 27.2289 128.82 26.7267C128.895 26.1994 129.146 25.7725 129.572 25.446C130.074 25.0442 130.564 24.881 131.04 24.9563C131.542 25.0066 131.969 25.22 132.32 25.5967C132.747 26.0738 133.424 26.5258 134.353 26.9527C135.306 27.3545 136.36 27.5554 137.514 27.5554C138.97 27.5554 140.074 27.3168 140.827 26.8397C141.604 26.3626 142.006 25.7474 142.031 24.994C142.056 24.2407 141.692 23.5878 140.939 23.0353C140.212 22.4829 138.869 22.0309 136.912 21.6793C134.378 21.1771 132.533 20.4237 131.379 19.4193C130.25 18.4148 129.685 17.1843 129.685 15.7279C129.685 14.4472 130.062 13.3925 130.815 12.5638C131.567 11.71 132.533 11.0823 133.713 10.6805C134.892 10.2536 136.122 10.0401 137.401 10.0401C139.057 10.0401 140.525 10.3038 141.805 10.8311C143.085 11.3585 144.101 12.0867 144.854 13.0158C145.205 13.4176 145.368 13.8445 145.343 14.2965C145.318 14.7234 145.105 15.0875 144.703 15.3889C144.302 15.6651 143.825 15.753 143.273 15.6525C142.721 15.5521 142.257 15.3261 141.88 14.9745C141.253 14.3719 140.576 13.9575 139.848 13.7315C139.12 13.5055 138.28 13.3925 137.326 13.3925C136.222 13.3925 135.281 13.5808 134.503 13.9575C133.75 14.3342 133.374 14.8866 133.374 15.6149C133.374 16.0669 133.487 16.4812 133.713 16.8579C133.964 17.2095 134.44 17.5359 135.143 17.8372C135.846 18.1135 136.874 18.3897 138.229 18.6659C140.111 19.0426 141.592 19.5197 142.671 20.0973C143.775 20.6748 144.565 21.3528 145.042 22.1313C145.519 22.8846 145.757 23.7635 145.757 24.768C145.757 25.9231 145.444 26.9653 144.816 27.8944C144.214 28.8235 143.311 29.5643 142.106 30.1167C140.927 30.6692 139.446 30.9454 137.665 30.9454Z" fill="#3C6FF2"/>
<path d="M158.102 30.7948C156.847 30.7948 155.718 30.4809 154.714 29.8531C153.711 29.2002 152.92 28.3213 152.343 27.2164C151.766 26.1115 151.477 24.8685 151.477 23.4873V5.52006C151.477 4.96761 151.653 4.51561 152.004 4.16404C152.356 3.81248 152.807 3.6367 153.359 3.6367C153.911 3.6367 154.363 3.81248 154.714 4.16404C155.066 4.51561 155.241 4.96761 155.241 5.52006V23.4873C155.241 24.4918 155.517 25.333 156.069 26.011C156.621 26.689 157.299 27.028 158.102 27.028H159.382C159.833 27.028 160.21 27.2038 160.511 27.5554C160.837 27.9069 161 28.3589 161 28.9114C161 29.4638 160.787 29.9159 160.36 30.2674C159.959 30.619 159.432 30.7948 158.779 30.7948H158.102ZM149.746 14.1835C149.219 14.1835 148.792 14.0329 148.466 13.7315C148.14 13.4302 147.977 13.0535 147.977 12.6015C147.977 12.0993 148.14 11.6975 148.466 11.3961C148.792 11.0948 149.219 10.9441 149.746 10.9441H158.441C158.967 10.9441 159.394 11.0948 159.72 11.3961C160.046 11.6975 160.21 12.0993 160.21 12.6015C160.21 13.0535 160.046 13.4302 159.72 13.7315C159.394 14.0329 158.967 14.1835 158.441 14.1835H149.746Z" fill="#3C6FF2"/>
<path d="M6.23185 30.7948C5.75509 30.7948 5.32851 30.619 4.95212 30.2674C4.57573 29.9159 4.38753 29.4513 4.38753 28.8737V10.3038C4.38753 8.49577 4.73883 6.9263 5.44143 5.5954C6.16912 4.26449 7.17284 3.23492 8.45257 2.50669C9.7323 1.75334 11.2128 1.37667 12.894 1.37667C13.446 1.37667 13.8977 1.5399 14.249 1.86635C14.6254 2.19279 14.8136 2.60713 14.8136 3.10936C14.8136 3.58648 14.6254 4.00082 14.249 4.35238C13.8977 4.67883 13.446 4.84205 12.894 4.84205C11.9656 4.84205 11.15 5.0555 10.4474 5.4824C9.74485 5.90929 9.19281 6.49941 8.79132 7.25276C8.41493 8.0061 8.22673 8.89756 8.22673 9.92713V28.8737C8.22673 29.4513 8.05108 29.9159 7.69979 30.2674C7.34849 30.619 6.85918 30.7948 6.23185 30.7948ZM2.76904 14.1835C2.24209 14.1835 1.81552 14.0329 1.48931 13.7315C1.1631 13.4302 1 13.0535 1 12.6015C1 12.0993 1.1631 11.6975 1.48931 11.3961C1.81552 11.0948 2.24209 10.9441 2.76904 10.9441H12.0659C12.5929 10.9441 13.0195 11.0948 13.3457 11.3961C13.6719 11.6975 13.835 12.0993 13.835 12.6015C13.835 13.0535 13.6719 13.4302 13.3457 13.7315C13.0195 14.0329 12.5929 14.1835 12.0659 14.1835H2.76904Z" stroke="#3C6FF2" stroke-width="2" mask="url(#path-1-outside-1_98_340)"/>
<path d="M22.3097 30.7948C21.7576 30.7948 21.2934 30.619 20.917 30.2674C20.5657 29.8907 20.3901 29.4262 20.3901 28.8737V12.1118C20.3901 11.5343 20.5657 11.0697 20.917 10.7181C21.2934 10.3666 21.7576 10.1908 22.3097 10.1908C22.8868 10.1908 23.351 10.3666 23.7023 10.7181C24.0536 11.0697 24.2293 11.5343 24.2293 12.1118V28.8737C24.2293 29.4262 24.0536 29.8907 23.7023 30.2674C23.351 30.619 22.8868 30.7948 22.3097 30.7948ZM22.3097 6.83842C21.6322 6.83842 21.0425 6.59986 20.5406 6.12274C20.0639 5.62051 19.8255 5.03039 19.8255 4.35238C19.8255 3.67437 20.0639 3.09681 20.5406 2.61969C21.0425 2.11746 21.6322 1.86635 22.3097 1.86635C22.9872 1.86635 23.5643 2.11746 24.0411 2.61969C24.543 3.09681 24.7939 3.67437 24.7939 4.35238C24.7939 5.03039 24.543 5.62051 24.0411 6.12274C23.5643 6.59986 22.9872 6.83842 22.3097 6.83842Z" stroke="#3C6FF2" stroke-width="2" mask="url(#path-1-outside-1_98_340)"/>
<path d="M38.8618 30.7948C37.6072 30.7948 36.478 30.4809 35.4743 29.8531C34.4706 29.2002 33.6802 28.3213 33.103 27.2164C32.5259 26.1115 32.2373 24.8685 32.2373 23.4873V5.52006C32.2373 4.96761 32.413 4.51561 32.7643 4.16404C33.1156 3.81248 33.5673 3.6367 34.1193 3.6367C34.6713 3.6367 35.123 3.81248 35.4743 4.16404C35.8256 4.51561 36.0013 4.96761 36.0013 5.52006V23.4873C36.0013 24.4918 36.2773 25.333 36.8293 26.011C37.3814 26.689 38.0589 27.028 38.8618 27.028H40.1416C40.5932 27.028 40.9696 27.2038 41.2708 27.5554C41.597 27.9069 41.7601 28.3589 41.7601 28.9114C41.7601 29.4638 41.5468 29.9159 41.1202 30.2674C40.7187 30.619 40.1918 30.7948 39.5393 30.7948H38.8618ZM30.5059 14.1835C29.979 14.1835 29.5524 14.0329 29.2262 13.7315C28.9 13.4302 28.7369 13.0535 28.7369 12.6015C28.7369 12.0993 28.9 11.6975 29.2262 11.3961C29.5524 11.0948 29.979 10.9441 30.5059 10.9441H39.2006C39.7275 10.9441 40.1541 11.0948 40.4803 11.3961C40.8065 11.6975 40.9696 12.0993 40.9696 12.6015C40.9696 13.0535 40.8065 13.4302 40.4803 13.7315C40.1541 14.0329 39.7275 14.1835 39.2006 14.1835H30.5059Z" stroke="#3C6FF2" stroke-width="2" mask="url(#path-1-outside-1_98_340)"/>
<path d="M70.7185 30.1921L62.8519 22.3196C62.4504 21.9179 62.2496 21.4784 62.2496 21.0013C62.2496 20.4991 62.4504 20.047 62.8519 19.6453C63.2533 19.2435 63.6925 19.0426 64.1692 19.0426C64.6711 19.0426 65.1228 19.2435 65.5242 19.6453L73.3908 27.5554C73.7672 27.9572 73.9554 28.3966 73.9554 28.8737C73.9805 29.3508 73.7923 29.7903 73.3908 30.1921C72.9894 30.5939 72.5377 30.7948 72.0358 30.7948C71.5591 30.7948 71.1199 30.5939 70.7185 30.1921ZM60.4429 31.1714C58.2348 31.1714 56.2148 30.8073 54.383 30.0791C52.5513 29.3257 50.9704 28.2836 49.6405 26.9527C48.3357 25.5967 47.3194 24.0021 46.5917 22.169C45.864 20.3107 45.5002 18.2767 45.5002 16.0669C45.5002 13.8571 45.864 11.8356 46.5917 10.0025C47.3194 8.16932 48.3357 6.5873 49.6405 5.25639C50.9704 3.90037 52.5513 2.85825 54.383 2.13001C56.2148 1.37667 58.2348 1 60.4429 1C62.6511 1 64.6585 1.37667 66.4652 2.13001C68.297 2.85825 69.8778 3.90037 71.2078 5.25639C72.5377 6.5873 73.5665 8.16932 74.2942 10.0025C75.0219 11.8356 75.3857 13.8571 75.3857 16.0669C75.3857 18.2767 75.0219 20.3107 74.2942 22.169C73.5665 24.0021 72.5377 25.5967 71.2078 26.9527C69.8778 28.2836 68.297 29.3257 66.4652 30.0791C64.6585 30.8073 62.6511 31.1714 60.4429 31.1714ZM60.4429 27.6307C62.074 27.6307 63.567 27.3419 64.922 26.7644C66.3021 26.1617 67.494 25.3456 68.4977 24.316C69.5015 23.2613 70.2668 22.0309 70.7937 20.6246C71.3458 19.2184 71.6218 17.6991 71.6218 16.0669C71.6218 14.4346 71.3458 12.9154 70.7937 11.5091C70.2668 10.1029 69.5015 8.885 68.4977 7.85543C67.494 6.80075 66.3021 5.98463 64.922 5.40706C63.567 4.8295 62.074 4.54072 60.4429 4.54072C58.8119 4.54072 57.3063 4.8295 55.9262 5.40706C54.5712 5.98463 53.3919 6.80075 52.3881 7.85543C51.4095 8.885 50.6442 10.1029 50.0922 11.5091C49.5401 12.9154 49.2641 14.4346 49.2641 16.0669C49.2641 17.6991 49.5401 19.2184 50.0922 20.6246C50.6442 22.0309 51.4095 23.2613 52.3881 24.316C53.3919 25.3456 54.5712 26.1617 55.9262 26.7644C57.3063 27.3419 58.8119 27.6307 60.4429 27.6307Z" stroke="#3C6FF2" stroke-width="2" mask="url(#path-1-outside-1_98_340)"/>
<path d="M89.7977 30.9831C88.0663 30.9831 86.5106 30.619 85.1305 29.8907C83.7755 29.1374 82.6965 28.0451 81.8935 26.6137C81.1156 25.1823 80.7267 23.4245 80.7267 21.3403V12.0742C80.7267 11.5217 80.9023 11.0697 81.2536 10.7181C81.63 10.3415 82.0942 10.1531 82.6463 10.1531C83.1983 10.1531 83.65 10.3415 84.0013 10.7181C84.3777 11.0697 84.5659 11.5217 84.5659 12.0742V21.3403C84.5659 22.7465 84.8294 23.9142 85.3563 24.8433C85.8832 25.7474 86.5984 26.4254 87.5017 26.8774C88.4051 27.3043 89.4213 27.5177 90.5505 27.5177C91.6295 27.5177 92.583 27.3043 93.4111 26.8774C94.2643 26.4505 94.9418 25.8729 95.4436 25.1447C95.9455 24.4164 96.1964 23.6003 96.1964 22.6963H98.5677C98.5677 24.2532 98.1787 25.6595 97.4009 26.915C96.6481 28.1706 95.6067 29.1625 94.2768 29.8907C92.972 30.619 91.479 30.9831 89.7977 30.9831ZM98.116 30.7948C97.564 30.7948 97.0997 30.619 96.7234 30.2674C96.372 29.8907 96.1964 29.4262 96.1964 28.8737V12.0742C96.1964 11.4966 96.372 11.032 96.7234 10.6805C97.0997 10.3289 97.564 10.1531 98.116 10.1531C98.6931 10.1531 99.1573 10.3289 99.5087 10.6805C99.86 11.032 100.036 11.4966 100.036 12.0742V28.8737C100.036 29.4262 99.86 29.8907 99.5087 30.2674C99.1573 30.619 98.6931 30.7948 98.116 30.7948Z" stroke="#3C6FF2" stroke-width="2" mask="url(#path-1-outside-1_98_340)"/>
<path d="M116.47 30.9454C114.388 30.9454 112.531 30.506 110.9 29.6271C109.294 28.7231 108.027 27.4926 107.098 25.9357C106.195 24.3537 105.743 22.5456 105.743 20.5116C105.743 18.4525 106.17 16.6444 107.023 15.0875C107.901 13.5055 109.106 12.275 110.636 11.3961C112.167 10.4921 113.924 10.0401 115.906 10.0401C117.863 10.0401 119.544 10.4796 120.949 11.3585C122.355 12.2123 123.421 13.4051 124.149 14.9369C124.902 16.4436 125.278 18.1888 125.278 20.1726C125.278 20.6497 125.115 21.0515 124.789 21.378C124.462 21.6793 124.048 21.83 123.547 21.83H108.378V18.8166H123.434L121.89 19.8713C121.865 18.6157 121.614 17.4982 121.138 16.5189C120.661 15.5144 119.983 14.7234 119.105 14.1459C118.227 13.5683 117.16 13.2795 115.906 13.2795C114.476 13.2795 113.246 13.5934 112.217 14.2212C111.213 14.849 110.448 15.7153 109.921 16.8202C109.394 17.9 109.131 19.1305 109.131 20.5116C109.131 21.8927 109.444 23.1232 110.072 24.203C110.699 25.2828 111.565 26.1366 112.669 26.7644C113.773 27.3922 115.04 27.706 116.47 27.706C117.248 27.706 118.039 27.5679 118.842 27.2917C119.67 26.9904 120.335 26.6514 120.837 26.2747C121.213 25.9985 121.614 25.8604 122.041 25.8604C122.493 25.8352 122.882 25.9608 123.208 26.237C123.634 26.6137 123.86 27.028 123.885 27.48C123.91 27.932 123.71 28.3213 123.283 28.6477C122.43 29.3257 121.364 29.8782 120.084 30.3051C118.829 30.732 117.625 30.9454 116.47 30.9454Z" stroke="#3C6FF2" stroke-width="2" mask="url(#path-1-outside-1_98_340)"/>
<path d="M137.665 30.9454C135.908 30.9454 134.277 30.6818 132.772 30.1544C131.291 29.602 130.137 28.9114 129.309 28.0827C128.933 27.6809 128.769 27.2289 128.82 26.7267C128.895 26.1994 129.146 25.7725 129.572 25.446C130.074 25.0442 130.564 24.881 131.04 24.9563C131.542 25.0066 131.969 25.22 132.32 25.5967C132.747 26.0738 133.424 26.5258 134.353 26.9527C135.306 27.3545 136.36 27.5554 137.514 27.5554C138.97 27.5554 140.074 27.3168 140.827 26.8397C141.604 26.3626 142.006 25.7474 142.031 24.994C142.056 24.2407 141.692 23.5878 140.939 23.0353C140.212 22.4829 138.869 22.0309 136.912 21.6793C134.378 21.1771 132.533 20.4237 131.379 19.4193C130.25 18.4148 129.685 17.1843 129.685 15.7279C129.685 14.4472 130.062 13.3925 130.815 12.5638C131.567 11.71 132.533 11.0823 133.713 10.6805C134.892 10.2536 136.122 10.0401 137.401 10.0401C139.057 10.0401 140.525 10.3038 141.805 10.8311C143.085 11.3585 144.101 12.0867 144.854 13.0158C145.205 13.4176 145.368 13.8445 145.343 14.2965C145.318 14.7234 145.105 15.0875 144.703 15.3889C144.302 15.6651 143.825 15.753 143.273 15.6525C142.721 15.5521 142.257 15.3261 141.88 14.9745C141.253 14.3719 140.576 13.9575 139.848 13.7315C139.12 13.5055 138.28 13.3925 137.326 13.3925C136.222 13.3925 135.281 13.5808 134.503 13.9575C133.75 14.3342 133.374 14.8866 133.374 15.6149C133.374 16.0669 133.487 16.4812 133.713 16.8579C133.964 17.2095 134.44 17.5359 135.143 17.8372C135.846 18.1135 136.874 18.3897 138.229 18.6659C140.111 19.0426 141.592 19.5197 142.671 20.0973C143.775 20.6748 144.565 21.3528 145.042 22.1313C145.519 22.8846 145.757 23.7635 145.757 24.768C145.757 25.9231 145.444 26.9653 144.816 27.8944C144.214 28.8235 143.311 29.5643 142.106 30.1167C140.927 30.6692 139.446 30.9454 137.665 30.9454Z" stroke="#3C6FF2" stroke-width="2" mask="url(#path-1-outside-1_98_340)"/>
<path d="M158.102 30.7948C156.847 30.7948 155.718 30.4809 154.714 29.8531C153.711 29.2002 152.92 28.3213 152.343 27.2164C151.766 26.1115 151.477 24.8685 151.477 23.4873V5.52006C151.477 4.96761 151.653 4.51561 152.004 4.16404C152.356 3.81248 152.807 3.6367 153.359 3.6367C153.911 3.6367 154.363 3.81248 154.714 4.16404C155.066 4.51561 155.241 4.96761 155.241 5.52006V23.4873C155.241 24.4918 155.517 25.333 156.069 26.011C156.621 26.689 157.299 27.028 158.102 27.028H159.382C159.833 27.028 160.21 27.2038 160.511 27.5554C160.837 27.9069 161 28.3589 161 28.9114C161 29.4638 160.787 29.9159 160.36 30.2674C159.959 30.619 159.432 30.7948 158.779 30.7948H158.102ZM149.746 14.1835C149.219 14.1835 148.792 14.0329 148.466 13.7315C148.14 13.4302 147.977 13.0535 147.977 12.6015C147.977 12.0993 148.14 11.6975 148.466 11.3961C148.792 11.0948 149.219 10.9441 149.746 10.9441H158.441C158.967 10.9441 159.394 11.0948 159.72 11.3961C160.046 11.6975 160.21 12.0993 160.21 12.6015C160.21 13.0535 160.046 13.4302 159.72 13.7315C159.394 14.0329 158.967 14.1835 158.441 14.1835H149.746Z" stroke="#3C6FF2" stroke-width="2" mask="url(#path-1-outside-1_98_340)"/>
</svg>
