<svg width="48" height="48" viewBox="0 0 48 48" fill="none" xmlns="http://www.w3.org/2000/svg">
<path d="M22.4543 3.84C11.3795 3.84 2.40002 12.8238 2.40002 23.9039C2.40002 34.9839 11.3795 43.9677 22.4543 43.9677C33.529 43.9677 42.5085 34.9839 42.5085 23.9039C42.5085 12.8238 33.529 3.84 22.4543 3.84ZM22.4543 35.6731C15.9554 35.6731 10.6907 30.4018 10.6907 23.9039C10.6907 17.406 15.9595 12.1346 22.4543 12.1346C28.949 12.1346 34.2178 17.406 34.2178 23.9039C34.2178 30.4018 28.949 35.6731 22.4543 35.6731Z" fill="#3C6FF2"/>
<path d="M41.4547 35.6731H24.1682C21.8788 35.6731 20.0228 37.529 20.0228 39.8184C20.0228 42.1077 21.8788 43.9636 24.1682 43.9636H41.4547C43.7441 43.9636 45.6001 42.1077 45.6001 39.8184C45.6001 37.529 43.7441 35.6731 41.4547 35.6731Z" fill="#3C6FF2"/>
<path d="M22.5527 25.1785L19.2446 21.8688C18.2022 20.8259 16.5121 20.8259 15.4697 21.8688C14.4273 22.9117 14.4273 24.6026 15.4697 25.6455L18.7778 28.9552C19.8202 29.9981 21.5103 29.9981 22.5527 28.9552C23.5951 27.9123 23.5951 26.2214 22.5527 25.1785Z" fill="#F6BF47"/>
<path d="M22.5787 28.9533L28.6179 22.9111C29.6603 21.8682 29.6603 20.1773 28.6179 19.1344C27.5755 18.0915 25.8854 18.0915 24.843 19.1344L18.8038 25.1766C17.7614 26.2195 17.7614 27.9104 18.8038 28.9533C19.8462 29.9962 21.5363 29.9962 22.5787 28.9533Z" fill="#F6BF47"/>
</svg>
