<svg width="61" height="20" viewBox="0 0 61 20" fill="none" xmlns="http://www.w3.org/2000/svg">
<path d="M9.35593 1.6001C4.74146 1.6001 1 5.34336 1 9.96004C1 14.5767 4.74146 18.32 9.35593 18.32C13.9704 18.32 17.7119 14.5767 17.7119 9.96004C17.7119 5.34336 13.9704 1.6001 9.35593 1.6001ZM9.35593 14.8639C6.64807 14.8639 4.45444 12.6675 4.45444 9.96004C4.45444 7.25259 6.64978 5.0562 9.35593 5.0562C12.0621 5.0562 14.2574 7.25259 14.2574 9.96004C14.2574 12.6675 12.0621 14.8639 9.35593 14.8639Z" fill="#3C6FF2"/>
<path d="M17.2728 14.8638H10.0701C9.11614 14.8638 8.34283 15.6371 8.34283 16.591C8.34283 17.5449 9.11614 18.3182 10.0701 18.3182H17.2728C18.2267 18.3182 19 17.5449 19 16.591C19 15.6371 18.2267 14.8638 17.2728 14.8638Z" fill="#3C6FF2"/>
<path d="M9.39699 10.491L8.01861 9.11201C7.58428 8.67746 6.88008 8.67746 6.44574 9.11201C6.01141 9.54655 6.01141 10.2511 6.44574 10.6856L7.82412 12.0647C8.25845 12.4992 8.96265 12.4992 9.39699 12.0647C9.83132 11.6301 9.83132 10.9256 9.39699 10.491Z" fill="#F6BF47"/>
<path d="M9.40779 12.0639L11.9241 9.54633C12.3585 9.11179 12.3585 8.40725 11.9241 7.97271C11.4898 7.53816 10.7856 7.53816 10.3513 7.97271L7.83491 10.4903C7.40058 10.9248 7.40058 11.6293 7.83492 12.0639C8.26925 12.4984 8.97345 12.4984 9.40779 12.0639Z" fill="#F6BF47"/>
<mask id="path-5-outside-1_183_434" maskUnits="userSpaceOnUse" x="20" y="3" width="41" height="15" fill="black">
<rect fill="white" x="20" y="3" width="41" height="15"/>
<path d="M25.2941 17.1241C24.4745 17.1241 23.738 16.9494 23.0847 16.5999C22.4432 16.2384 21.9325 15.7141 21.5524 15.0272C21.1841 14.3402 21 13.4966 21 12.4963V8.04932C21 7.78419 21.0832 7.56726 21.2495 7.39854C21.4276 7.21776 21.6474 7.12738 21.9087 7.12738C22.17 7.12738 22.3839 7.21776 22.5502 7.39854C22.7283 7.56726 22.8174 7.78419 22.8174 8.04932V12.4963C22.8174 13.1712 22.9421 13.7316 23.1916 14.1775C23.441 14.6114 23.7796 14.9368 24.2072 15.1537C24.6348 15.3586 25.1159 15.461 25.6504 15.461C26.1612 15.461 26.6126 15.3586 27.0046 15.1537C27.4085 14.9488 27.7292 14.6716 27.9667 14.3222C28.2043 13.9727 28.3231 13.581 28.3231 13.1471H29.4456C29.4456 13.8943 29.2615 14.5692 28.8933 15.1718C28.5369 15.7744 28.044 16.2504 27.4144 16.5999C26.7967 16.9494 26.0899 17.1241 25.2941 17.1241ZM29.2318 17.0338C28.9705 17.0338 28.7507 16.9494 28.5726 16.7807C28.4063 16.5999 28.3231 16.3769 28.3231 16.1118V8.04932C28.3231 7.77214 28.4063 7.54918 28.5726 7.38046C28.7507 7.21174 28.9705 7.12738 29.2318 7.12738C29.505 7.12738 29.7248 7.21174 29.8911 7.38046C30.0574 7.54918 30.1405 7.77214 30.1405 8.04932V16.1118C30.1405 16.3769 30.0574 16.5999 29.8911 16.7807C29.7248 16.9494 29.505 17.0338 29.2318 17.0338Z"/>
<path d="M37.9205 17.1061C36.9346 17.1061 36.0555 16.8952 35.2834 16.4734C34.5232 16.0395 33.9234 15.449 33.4839 14.7018C33.0562 13.9425 32.8424 13.0748 32.8424 12.0986C32.8424 11.1104 33.0443 10.2427 33.4482 9.49551C33.864 8.73626 34.4341 8.14573 35.1587 7.72393C35.8833 7.29007 36.7148 7.07315 37.6532 7.07315C38.5797 7.07315 39.3756 7.28405 40.0408 7.70585C40.706 8.11561 41.2108 8.68805 41.5553 9.4232C41.9117 10.1463 42.0898 10.9839 42.0898 11.9359C42.0898 12.1649 42.0126 12.3578 41.8582 12.5144C41.7038 12.659 41.5078 12.7313 41.2702 12.7313H34.0897V11.2852L40.5575 11.2129L40.4862 11.7913C40.4744 11.1888 40.3556 10.6525 40.1299 10.1824C39.9042 9.70038 39.5835 9.32076 39.1677 9.04357C38.752 8.76639 38.2471 8.6278 37.6532 8.6278C36.9761 8.6278 36.3941 8.77844 35.9071 9.07973C35.4319 9.38102 35.0696 9.7968 34.8202 10.3271C34.5707 10.8453 34.446 11.4358 34.446 12.0986C34.446 12.7615 34.5945 13.352 34.8915 13.8702C35.1884 14.3884 35.5982 14.7982 36.1209 15.0995C36.6435 15.4008 37.2434 15.5514 37.9205 15.5514C38.2887 15.5514 38.6629 15.4851 39.043 15.3526C39.435 15.2079 39.7498 15.0452 39.9873 14.8645C40.1655 14.7319 40.3556 14.6656 40.5575 14.6656C40.7713 14.6536 40.9554 14.7138 41.1099 14.8464C41.3118 15.0272 41.4187 15.226 41.4306 15.4429C41.4425 15.6599 41.3474 15.8467 41.1455 16.0033C40.7416 16.3287 40.2368 16.5939 39.631 16.7987C39.0371 17.0036 38.4669 17.1061 37.9205 17.1061Z"/>
<path d="M47.9535 17.1061C47.122 17.1061 46.35 16.9795 45.6372 16.7264C44.9364 16.4613 44.39 16.1299 43.998 15.7322C43.8198 15.5394 43.7426 15.3224 43.7664 15.0814C43.802 14.8283 43.9208 14.6234 44.1227 14.4668C44.3603 14.2739 44.5919 14.1956 44.8176 14.2318C45.0552 14.2559 45.2571 14.3583 45.4234 14.5391C45.6254 14.7681 45.9461 14.985 46.3856 15.1899C46.837 15.3827 47.3359 15.4791 47.8823 15.4791C48.5712 15.4791 49.0939 15.3646 49.4502 15.1356C49.8185 14.9067 50.0085 14.6114 50.0204 14.2498C50.0323 13.8883 49.86 13.575 49.5037 13.3098C49.1592 13.0447 48.5237 12.8278 47.5972 12.659C46.3975 12.418 45.5244 12.0565 44.978 11.5744C44.4434 11.0923 44.1762 10.5018 44.1762 9.80282C44.1762 9.18819 44.3544 8.68203 44.7107 8.28433C45.0671 7.87457 45.5244 7.57329 46.0827 7.38046C46.641 7.17558 47.223 7.07315 47.8288 7.07315C48.6128 7.07315 49.3077 7.19969 49.9135 7.45277C50.5193 7.70585 51.0004 8.05535 51.3567 8.50125C51.523 8.69408 51.6002 8.89896 51.5884 9.11588C51.5765 9.32076 51.4755 9.49551 51.2855 9.64013C51.0954 9.77269 50.8697 9.81487 50.6084 9.76667C50.3471 9.71846 50.1273 9.61 49.9491 9.44128C49.6522 9.15204 49.3315 8.95319 48.987 8.84473C48.6425 8.73626 48.2446 8.68203 47.7932 8.68203C47.2705 8.68203 46.8251 8.77241 46.4569 8.95319C46.1005 9.13396 45.9223 9.3991 45.9223 9.74859C45.9223 9.96552 45.9758 10.1644 46.0827 10.3451C46.2015 10.5139 46.4272 10.6705 46.7598 10.8152C47.0924 10.9477 47.5794 11.0803 48.2208 11.2129C49.1117 11.3936 49.8125 11.6226 50.3233 11.8998C50.846 12.177 51.2201 12.5024 51.4458 12.876C51.6715 13.2375 51.7844 13.6593 51.7844 14.1414C51.7844 14.6958 51.6359 15.1959 51.3389 15.6418C51.0538 16.0877 50.6262 16.4432 50.056 16.7084C49.4978 16.9735 48.7969 17.1061 47.9535 17.1061Z"/>
<path d="M58.628 17.0338C58.0341 17.0338 57.4996 16.8831 57.0244 16.5818C56.5493 16.2685 56.1751 15.8467 55.9019 15.3164C55.6287 14.7861 55.4921 14.1896 55.4921 13.5268V4.90387C55.4921 4.63873 55.5753 4.4218 55.7416 4.25308C55.9079 4.08436 56.1217 4 56.383 4C56.6443 4 56.8581 4.08436 57.0244 4.25308C57.1907 4.4218 57.2739 4.63873 57.2739 4.90387V13.5268C57.2739 14.0088 57.4045 14.4125 57.6659 14.7379C57.9272 15.0633 58.2479 15.226 58.628 15.226H59.2338C59.4477 15.226 59.6258 15.3104 59.7684 15.4791C59.9228 15.6478 60 15.8648 60 16.1299C60 16.395 59.899 16.6119 59.6971 16.7807C59.507 16.9494 59.2576 17.0338 58.9488 17.0338H58.628ZM54.6725 9.06165C54.423 9.06165 54.2211 8.98934 54.0667 8.84473C53.9123 8.70011 53.8351 8.51933 53.8351 8.3024C53.8351 8.06137 53.9123 7.86855 54.0667 7.72393C54.2211 7.57931 54.423 7.507 54.6725 7.507H58.7884C59.0378 7.507 59.2398 7.57931 59.3942 7.72393C59.5486 7.86855 59.6258 8.06137 59.6258 8.3024C59.6258 8.51933 59.5486 8.70011 59.3942 8.84473C59.2398 8.98934 59.0378 9.06165 58.7884 9.06165H54.6725Z"/>
</mask>
<path d="M25.2941 17.1241C24.4745 17.1241 23.738 16.9494 23.0847 16.5999C22.4432 16.2384 21.9325 15.7141 21.5524 15.0272C21.1841 14.3402 21 13.4966 21 12.4963V8.04932C21 7.78419 21.0832 7.56726 21.2495 7.39854C21.4276 7.21776 21.6474 7.12738 21.9087 7.12738C22.17 7.12738 22.3839 7.21776 22.5502 7.39854C22.7283 7.56726 22.8174 7.78419 22.8174 8.04932V12.4963C22.8174 13.1712 22.9421 13.7316 23.1916 14.1775C23.441 14.6114 23.7796 14.9368 24.2072 15.1537C24.6348 15.3586 25.1159 15.461 25.6504 15.461C26.1612 15.461 26.6126 15.3586 27.0046 15.1537C27.4085 14.9488 27.7292 14.6716 27.9667 14.3222C28.2043 13.9727 28.3231 13.581 28.3231 13.1471H29.4456C29.4456 13.8943 29.2615 14.5692 28.8933 15.1718C28.5369 15.7744 28.044 16.2504 27.4144 16.5999C26.7967 16.9494 26.0899 17.1241 25.2941 17.1241ZM29.2318 17.0338C28.9705 17.0338 28.7507 16.9494 28.5726 16.7807C28.4063 16.5999 28.3231 16.3769 28.3231 16.1118V8.04932C28.3231 7.77214 28.4063 7.54918 28.5726 7.38046C28.7507 7.21174 28.9705 7.12738 29.2318 7.12738C29.505 7.12738 29.7248 7.21174 29.8911 7.38046C30.0574 7.54918 30.1405 7.77214 30.1405 8.04932V16.1118C30.1405 16.3769 30.0574 16.5999 29.8911 16.7807C29.7248 16.9494 29.505 17.0338 29.2318 17.0338Z" fill="#3C6FF2"/>
<path d="M37.9205 17.1061C36.9346 17.1061 36.0555 16.8952 35.2834 16.4734C34.5232 16.0395 33.9234 15.449 33.4839 14.7018C33.0562 13.9425 32.8424 13.0748 32.8424 12.0986C32.8424 11.1104 33.0443 10.2427 33.4482 9.49551C33.864 8.73626 34.4341 8.14573 35.1587 7.72393C35.8833 7.29007 36.7148 7.07315 37.6532 7.07315C38.5797 7.07315 39.3756 7.28405 40.0408 7.70585C40.706 8.11561 41.2108 8.68805 41.5553 9.4232C41.9117 10.1463 42.0898 10.9839 42.0898 11.9359C42.0898 12.1649 42.0126 12.3578 41.8582 12.5144C41.7038 12.659 41.5078 12.7313 41.2702 12.7313H34.0897V11.2852L40.5575 11.2129L40.4862 11.7913C40.4744 11.1888 40.3556 10.6525 40.1299 10.1824C39.9042 9.70038 39.5835 9.32076 39.1677 9.04357C38.752 8.76639 38.2471 8.6278 37.6532 8.6278C36.9761 8.6278 36.3941 8.77844 35.9071 9.07973C35.4319 9.38102 35.0696 9.7968 34.8202 10.3271C34.5707 10.8453 34.446 11.4358 34.446 12.0986C34.446 12.7615 34.5945 13.352 34.8915 13.8702C35.1884 14.3884 35.5982 14.7982 36.1209 15.0995C36.6435 15.4008 37.2434 15.5514 37.9205 15.5514C38.2887 15.5514 38.6629 15.4851 39.043 15.3526C39.435 15.2079 39.7498 15.0452 39.9873 14.8645C40.1655 14.7319 40.3556 14.6656 40.5575 14.6656C40.7713 14.6536 40.9554 14.7138 41.1099 14.8464C41.3118 15.0272 41.4187 15.226 41.4306 15.4429C41.4425 15.6599 41.3474 15.8467 41.1455 16.0033C40.7416 16.3287 40.2368 16.5939 39.631 16.7987C39.0371 17.0036 38.4669 17.1061 37.9205 17.1061Z" fill="#3C6FF2"/>
<path d="M47.9535 17.1061C47.122 17.1061 46.35 16.9795 45.6372 16.7264C44.9364 16.4613 44.39 16.1299 43.998 15.7322C43.8198 15.5394 43.7426 15.3224 43.7664 15.0814C43.802 14.8283 43.9208 14.6234 44.1227 14.4668C44.3603 14.2739 44.5919 14.1956 44.8176 14.2318C45.0552 14.2559 45.2571 14.3583 45.4234 14.5391C45.6254 14.7681 45.9461 14.985 46.3856 15.1899C46.837 15.3827 47.3359 15.4791 47.8823 15.4791C48.5712 15.4791 49.0939 15.3646 49.4502 15.1356C49.8185 14.9067 50.0085 14.6114 50.0204 14.2498C50.0323 13.8883 49.86 13.575 49.5037 13.3098C49.1592 13.0447 48.5237 12.8278 47.5972 12.659C46.3975 12.418 45.5244 12.0565 44.978 11.5744C44.4434 11.0923 44.1762 10.5018 44.1762 9.80282C44.1762 9.18819 44.3544 8.68203 44.7107 8.28433C45.0671 7.87457 45.5244 7.57329 46.0827 7.38046C46.641 7.17558 47.223 7.07315 47.8288 7.07315C48.6128 7.07315 49.3077 7.19969 49.9135 7.45277C50.5193 7.70585 51.0004 8.05535 51.3567 8.50125C51.523 8.69408 51.6002 8.89896 51.5884 9.11588C51.5765 9.32076 51.4755 9.49551 51.2855 9.64013C51.0954 9.77269 50.8697 9.81487 50.6084 9.76667C50.3471 9.71846 50.1273 9.61 49.9491 9.44128C49.6522 9.15204 49.3315 8.95319 48.987 8.84473C48.6425 8.73626 48.2446 8.68203 47.7932 8.68203C47.2705 8.68203 46.8251 8.77241 46.4569 8.95319C46.1005 9.13396 45.9223 9.3991 45.9223 9.74859C45.9223 9.96552 45.9758 10.1644 46.0827 10.3451C46.2015 10.5139 46.4272 10.6705 46.7598 10.8152C47.0924 10.9477 47.5794 11.0803 48.2208 11.2129C49.1117 11.3936 49.8125 11.6226 50.3233 11.8998C50.846 12.177 51.2201 12.5024 51.4458 12.876C51.6715 13.2375 51.7844 13.6593 51.7844 14.1414C51.7844 14.6958 51.6359 15.1959 51.3389 15.6418C51.0538 16.0877 50.6262 16.4432 50.056 16.7084C49.4978 16.9735 48.7969 17.1061 47.9535 17.1061Z" fill="#3C6FF2"/>
<path d="M58.628 17.0338C58.0341 17.0338 57.4996 16.8831 57.0244 16.5818C56.5493 16.2685 56.1751 15.8467 55.9019 15.3164C55.6287 14.7861 55.4921 14.1896 55.4921 13.5268V4.90387C55.4921 4.63873 55.5753 4.4218 55.7416 4.25308C55.9079 4.08436 56.1217 4 56.383 4C56.6443 4 56.8581 4.08436 57.0244 4.25308C57.1907 4.4218 57.2739 4.63873 57.2739 4.90387V13.5268C57.2739 14.0088 57.4045 14.4125 57.6659 14.7379C57.9272 15.0633 58.2479 15.226 58.628 15.226H59.2338C59.4477 15.226 59.6258 15.3104 59.7684 15.4791C59.9228 15.6478 60 15.8648 60 16.1299C60 16.395 59.899 16.6119 59.6971 16.7807C59.507 16.9494 59.2576 17.0338 58.9488 17.0338H58.628ZM54.6725 9.06165C54.423 9.06165 54.2211 8.98934 54.0667 8.84473C53.9123 8.70011 53.8351 8.51933 53.8351 8.3024C53.8351 8.06137 53.9123 7.86855 54.0667 7.72393C54.2211 7.57931 54.423 7.507 54.6725 7.507H58.7884C59.0378 7.507 59.2398 7.57931 59.3942 7.72393C59.5486 7.86855 59.6258 8.06137 59.6258 8.3024C59.6258 8.51933 59.5486 8.70011 59.3942 8.84473C59.2398 8.98934 59.0378 9.06165 58.7884 9.06165H54.6725Z" fill="#3C6FF2"/>
<path d="M25.2941 17.1241C24.4745 17.1241 23.738 16.9494 23.0847 16.5999C22.4432 16.2384 21.9325 15.7141 21.5524 15.0272C21.1841 14.3402 21 13.4966 21 12.4963V8.04932C21 7.78419 21.0832 7.56726 21.2495 7.39854C21.4276 7.21776 21.6474 7.12738 21.9087 7.12738C22.17 7.12738 22.3839 7.21776 22.5502 7.39854C22.7283 7.56726 22.8174 7.78419 22.8174 8.04932V12.4963C22.8174 13.1712 22.9421 13.7316 23.1916 14.1775C23.441 14.6114 23.7796 14.9368 24.2072 15.1537C24.6348 15.3586 25.1159 15.461 25.6504 15.461C26.1612 15.461 26.6126 15.3586 27.0046 15.1537C27.4085 14.9488 27.7292 14.6716 27.9667 14.3222C28.2043 13.9727 28.3231 13.581 28.3231 13.1471H29.4456C29.4456 13.8943 29.2615 14.5692 28.8933 15.1718C28.5369 15.7744 28.044 16.2504 27.4144 16.5999C26.7967 16.9494 26.0899 17.1241 25.2941 17.1241ZM29.2318 17.0338C28.9705 17.0338 28.7507 16.9494 28.5726 16.7807C28.4063 16.5999 28.3231 16.3769 28.3231 16.1118V8.04932C28.3231 7.77214 28.4063 7.54918 28.5726 7.38046C28.7507 7.21174 28.9705 7.12738 29.2318 7.12738C29.505 7.12738 29.7248 7.21174 29.8911 7.38046C30.0574 7.54918 30.1405 7.77214 30.1405 8.04932V16.1118C30.1405 16.3769 30.0574 16.5999 29.8911 16.7807C29.7248 16.9494 29.505 17.0338 29.2318 17.0338Z" stroke="#3C6FF2" mask="url(#path-5-outside-1_183_434)"/>
<path d="M37.9205 17.1061C36.9346 17.1061 36.0555 16.8952 35.2834 16.4734C34.5232 16.0395 33.9234 15.449 33.4839 14.7018C33.0562 13.9425 32.8424 13.0748 32.8424 12.0986C32.8424 11.1104 33.0443 10.2427 33.4482 9.49551C33.864 8.73626 34.4341 8.14573 35.1587 7.72393C35.8833 7.29007 36.7148 7.07315 37.6532 7.07315C38.5797 7.07315 39.3756 7.28405 40.0408 7.70585C40.706 8.11561 41.2108 8.68805 41.5553 9.4232C41.9117 10.1463 42.0898 10.9839 42.0898 11.9359C42.0898 12.1649 42.0126 12.3578 41.8582 12.5144C41.7038 12.659 41.5078 12.7313 41.2702 12.7313H34.0897V11.2852L40.5575 11.2129L40.4862 11.7913C40.4744 11.1888 40.3556 10.6525 40.1299 10.1824C39.9042 9.70038 39.5835 9.32076 39.1677 9.04357C38.752 8.76639 38.2471 8.6278 37.6532 8.6278C36.9761 8.6278 36.3941 8.77844 35.9071 9.07973C35.4319 9.38102 35.0696 9.7968 34.8202 10.3271C34.5707 10.8453 34.446 11.4358 34.446 12.0986C34.446 12.7615 34.5945 13.352 34.8915 13.8702C35.1884 14.3884 35.5982 14.7982 36.1209 15.0995C36.6435 15.4008 37.2434 15.5514 37.9205 15.5514C38.2887 15.5514 38.6629 15.4851 39.043 15.3526C39.435 15.2079 39.7498 15.0452 39.9873 14.8645C40.1655 14.7319 40.3556 14.6656 40.5575 14.6656C40.7713 14.6536 40.9554 14.7138 41.1099 14.8464C41.3118 15.0272 41.4187 15.226 41.4306 15.4429C41.4425 15.6599 41.3474 15.8467 41.1455 16.0033C40.7416 16.3287 40.2368 16.5939 39.631 16.7987C39.0371 17.0036 38.4669 17.1061 37.9205 17.1061Z" stroke="#3C6FF2" mask="url(#path-5-outside-1_183_434)"/>
<path d="M47.9535 17.1061C47.122 17.1061 46.35 16.9795 45.6372 16.7264C44.9364 16.4613 44.39 16.1299 43.998 15.7322C43.8198 15.5394 43.7426 15.3224 43.7664 15.0814C43.802 14.8283 43.9208 14.6234 44.1227 14.4668C44.3603 14.2739 44.5919 14.1956 44.8176 14.2318C45.0552 14.2559 45.2571 14.3583 45.4234 14.5391C45.6254 14.7681 45.9461 14.985 46.3856 15.1899C46.837 15.3827 47.3359 15.4791 47.8823 15.4791C48.5712 15.4791 49.0939 15.3646 49.4502 15.1356C49.8185 14.9067 50.0085 14.6114 50.0204 14.2498C50.0323 13.8883 49.86 13.575 49.5037 13.3098C49.1592 13.0447 48.5237 12.8278 47.5972 12.659C46.3975 12.418 45.5244 12.0565 44.978 11.5744C44.4434 11.0923 44.1762 10.5018 44.1762 9.80282C44.1762 9.18819 44.3544 8.68203 44.7107 8.28433C45.0671 7.87457 45.5244 7.57329 46.0827 7.38046C46.641 7.17558 47.223 7.07315 47.8288 7.07315C48.6128 7.07315 49.3077 7.19969 49.9135 7.45277C50.5193 7.70585 51.0004 8.05535 51.3567 8.50125C51.523 8.69408 51.6002 8.89896 51.5884 9.11588C51.5765 9.32076 51.4755 9.49551 51.2855 9.64013C51.0954 9.77269 50.8697 9.81487 50.6084 9.76667C50.3471 9.71846 50.1273 9.61 49.9491 9.44128C49.6522 9.15204 49.3315 8.95319 48.987 8.84473C48.6425 8.73626 48.2446 8.68203 47.7932 8.68203C47.2705 8.68203 46.8251 8.77241 46.4569 8.95319C46.1005 9.13396 45.9223 9.3991 45.9223 9.74859C45.9223 9.96552 45.9758 10.1644 46.0827 10.3451C46.2015 10.5139 46.4272 10.6705 46.7598 10.8152C47.0924 10.9477 47.5794 11.0803 48.2208 11.2129C49.1117 11.3936 49.8125 11.6226 50.3233 11.8998C50.846 12.177 51.2201 12.5024 51.4458 12.876C51.6715 13.2375 51.7844 13.6593 51.7844 14.1414C51.7844 14.6958 51.6359 15.1959 51.3389 15.6418C51.0538 16.0877 50.6262 16.4432 50.056 16.7084C49.4978 16.9735 48.7969 17.1061 47.9535 17.1061Z" stroke="#3C6FF2" mask="url(#path-5-outside-1_183_434)"/>
<path d="M58.628 17.0338C58.0341 17.0338 57.4996 16.8831 57.0244 16.5818C56.5493 16.2685 56.1751 15.8467 55.9019 15.3164C55.6287 14.7861 55.4921 14.1896 55.4921 13.5268V4.90387C55.4921 4.63873 55.5753 4.4218 55.7416 4.25308C55.9079 4.08436 56.1217 4 56.383 4C56.6443 4 56.8581 4.08436 57.0244 4.25308C57.1907 4.4218 57.2739 4.63873 57.2739 4.90387V13.5268C57.2739 14.0088 57.4045 14.4125 57.6659 14.7379C57.9272 15.0633 58.2479 15.226 58.628 15.226H59.2338C59.4477 15.226 59.6258 15.3104 59.7684 15.4791C59.9228 15.6478 60 15.8648 60 16.1299C60 16.395 59.899 16.6119 59.6971 16.7807C59.507 16.9494 59.2576 17.0338 58.9488 17.0338H58.628ZM54.6725 9.06165C54.423 9.06165 54.2211 8.98934 54.0667 8.84473C53.9123 8.70011 53.8351 8.51933 53.8351 8.3024C53.8351 8.06137 53.9123 7.86855 54.0667 7.72393C54.2211 7.57931 54.423 7.507 54.6725 7.507H58.7884C59.0378 7.507 59.2398 7.57931 59.3942 7.72393C59.5486 7.86855 59.6258 8.06137 59.6258 8.3024C59.6258 8.51933 59.5486 8.70011 59.3942 8.84473C59.2398 8.98934 59.0378 9.06165 58.7884 9.06165H54.6725Z" stroke="#3C6FF2" mask="url(#path-5-outside-1_183_434)"/>
</svg>
